<svg width="39" height="42" viewBox="0 0 39 42" xmlns="http://www.w3.org/2000/svg"><path d="M7.273 42C3.417 41.829.3 38.83.02 35.02c-.28-3.811 2.363-7.227 6.152-7.95a1.728 1.728 0 0 1 1.962 1.449 1.716 1.716 0 0 1-1.463 1.943c-2.204.3-3.777 2.267-3.567 4.46.21 2.192 2.127 3.831 4.349 3.718 2.221-.114 3.958-1.94 3.938-4.143 0-2.24-1.204-4.296-2.596-6.673-1.75-3.022-3.737-6.4-3.737-11.039C5.065 9.505 9.808 3.06 16.804.817c6.996-2.241 14.655.233 18.969 6.129a16.664 16.664 0 0 1-.03 19.753c-4.332 5.883-11.999 8.334-18.988 6.072a1.72 1.72 0 0 1-1.173-1.277c-.13-.603.078-1.23.544-1.639a1.744 1.744 0 0 1 1.709-.339c5.573 1.809 11.689-.143 15.146-4.834a13.287 13.287 0 0 0 .027-15.753c-3.441-4.702-9.55-6.675-15.13-4.885S8.52 10.98 8.518 16.785c0 3.714 1.669 6.564 3.281 9.319 1.502 2.57 3.06 5.228 3.06 8.393-.02 4.139-3.406 7.488-7.586 7.503zm17.829-30.306a2.3 2.3 0 0 1-3.208-.38 2.246 2.246 0 0 1 .383-3.174 2.3 2.3 0 0 1 3.208.379c.78.981.608 2.403-.383 3.175z" fill="#3880FF"/></svg>